<?xml version="1.0" encoding="utf-8"?>
<!-- Generator: Adobe Illustrator 26.3.1, SVG Export Plug-In . SVG Version: 6.00 Build 0)  -->
<svg version="1.1" id="Layer_1" xmlns="http://www.w3.org/2000/svg" xmlns:xlink="http://www.w3.org/1999/xlink" x="0px" y="0px"
	 viewBox="0 0 55 55" style="enable-background:new 0 0 55 55;" xml:space="preserve">
<style type="text/css">
	.st0{fill:#939292;}
</style>
<g>
	<g>
		<path id="RSA_00000116199170983898399770000008945365637399190678_" class="st0" d="M46.9,52.7c-0.6,0-1.2-0.2-1.6-0.6L29,38
			c-1-0.9-1.1-2.4-0.2-3.4c0,0,0,0,0,0l2.8-3.1c0.9-1,2.5-1.1,3.5-0.2l16.2,14.2c1,0.9,1.1,2.4,0.2,3.4c0,0,0,0,0,0l-2.8,3.1
			c-0.4,0.5-1,0.8-1.7,0.8C47,52.7,46.9,52.7,46.9,52.7z M33.4,31.6c-0.4,0-0.8,0.1-1,0.4l-2.8,3.1c-0.5,0.5-0.4,1.4,0.1,1.9l0,0
			l16.2,14.2c0.6,0.5,1.4,0.4,2-0.1l2.8-3.1c0.5-0.5,0.4-1.4-0.1-1.9l0,0L34.3,32C34,31.7,33.7,31.6,33.4,31.6z M22.5,26.5
			c-0.1,0-0.2,0-0.3-0.1L7.8,14c-0.2-0.2-0.2-0.5,0-0.7l0,0c0.2-0.2,0.5-0.2,0.8,0l14.3,12.4c0.2,0.2,0.2,0.5,0,0.7
			C22.8,26.5,22.6,26.5,22.5,26.5L22.5,26.5z M6.4,15.7L6.4,15.7c-0.4,0-0.8-0.2-1-0.5l-2.9-3.7c-0.4-0.5-0.3-1.1,0-1.6l1.7-1.9
			c0.4-0.4,1-0.5,1.6-0.2l4.2,2.3c0.3,0.2,0.5,0.5,0.6,0.9c0,0.4,0,0.7-0.3,1l-2.9,3.3C7.1,15.6,6.8,15.7,6.4,15.7L6.4,15.7z
			 M5.2,8.7c0,0-0.1,0-0.1,0l-1.7,1.9c0,0,0,0.1,0,0.2l0,0l2.9,3.7c0,0,0.1,0,0.1,0s0.1,0,0.1,0l2.9-3.3c0,0,0-0.1,0-0.1
			c0,0,0-0.1-0.1-0.1L5.2,8.7C5.2,8.7,5.2,8.7,5.2,8.7L5.2,8.7z M45.1,46.5c-0.1,0-0.2,0-0.3-0.1l-9.5-8.3c-0.2-0.2-0.2-0.5,0-0.7
			l0,0c0.2-0.2,0.5-0.2,0.8,0l9.5,8.3c0.2,0.2,0.2,0.5,0,0.7l0,0C45.4,46.5,45.3,46.5,45.1,46.5L45.1,46.5z M10.2,51.1
			c-0.9,0-1.8-0.3-2.5-1L7.5,50c-1.4-1.3-1.5-3.6-0.1-5c0,0,0,0,0.1-0.1l28.7-28.7l3.6,3.5L12.9,50c-0.6,0.7-1.6,1.1-2.5,1.2
			C10.3,51.1,10.2,51.1,10.2,51.1L10.2,51.1z M36.1,17.7l-28,27.9c-0.5,0.5-0.7,1.1-0.7,1.8c0,0.7,0.3,1.3,0.8,1.8l0.2,0.2
			c1,0.9,2.6,0.9,3.6-0.1l0,0l26.1-29.5L36.1,17.7z M43.4,20.9c-5.2,0-9.4-4.1-9.5-9.2c0-5.2,4.1-9.4,9.2-9.5c0.1,0,0.2,0,0.3,0
			c0.4,0,0.8,0.3,0.8,0.8c0,0.2-0.1,0.4-0.2,0.5C41.3,6.4,40.8,10,43,12c1,0.9,2.5,1.3,3.8,1.1c1.7-0.3,3.4-1.2,4.6-2.6l0,0
			c0.2-0.2,0.5-0.3,0.8-0.2c0.3,0.1,0.5,0.3,0.5,0.7l0,0c0.3,5.2-3.6,9.6-8.8,9.9C43.7,20.9,43.6,20.9,43.4,20.9L43.4,20.9
			L43.4,20.9z M42.7,3.4c-2.2,0.1-4.3,1.2-5.7,2.9c-3,3.5-2.5,8.7,0.9,11.6c1.5,1.3,3.5,2,5.4,2l0,0c4.5,0,8.2-3.6,8.3-8.1
			c-1.3,1.3-3,2.1-4.8,2.4c-1.7,0.3-3.5-0.2-4.8-1.4C39.7,10.5,39.9,6.6,42.7,3.4L42.7,3.4z"/>
	</g>
</g>
</svg>
